<?xml version="1.0" standalone="no"?>
<!DOCTYPE svg PUBLIC "-//W3C//DTD SVG 20010904//EN"
 "http://www.w3.org/TR/2001/REC-SVG-20010904/DTD/svg10.dtd">
<svg version="1.0" xmlns="http://www.w3.org/2000/svg"
 width="256.000000pt" height="256.000000pt" viewBox="0 0 256.000000 256.000000"
 preserveAspectRatio="xMidYMid meet">
<metadata>
Created by potrace 1.14, written by Peter Selinger 2001-2017
</metadata>
<g transform="translate(0.000000,256.000000) scale(0.100000,-0.100000)"
fill="#000000" stroke="none">
<path d="M1070 2542 c-21 -11 -44 -35 -57 -61 -81 -158 153 -275 239 -120 61
112 -70 242 -182 181z"/>
<path d="M1351 2539 c-43 -26 -66 -66 -65 -115 0 -54 19 -89 60 -114 92 -57
207 6 207 114 0 103 -114 168 -202 115z"/>
<path d="M524 2248 c-6 -10 -6 -1747 0 -1756 2 -4 79 -7 170 -7 161 0 164 0
148 -18 -9 -11 -102 -104 -207 -208 l-189 -189 26 -27 26 -26 44 46 43 45 685
0 685 0 56 -54 55 -54 24 25 24 26 -217 217 -217 218 165 -1 165 -1 0 883 c0
486 -3 883 -7 884 -42 5 -1476 2 -1479 -3z m694 -614 l0 -254 -301 2 -302 3 0
245 c-1 135 0 248 2 251 2 4 137 7 302 7 l298 0 1 -254z m707 -1 l0 -253 -300
0 -301 0 2 248 c1 136 2 250 3 254 0 3 135 5 298 5 l298 -2 0 -252z m-1085
-531 c97 -48 117 -187 37 -262 -82 -78 -208 -54 -258 48 -69 140 81 285 221
214z m994 4 c71 -29 112 -123 87 -199 -46 -139 -238 -152 -302 -21 -66 138 72
280 215 220z m-219 -656 c19 -18 35 -36 35 -40 0 -3 -171 -5 -380 -5 -209 0
-380 2 -380 4 0 2 16 20 35 40 l35 36 310 0 309 0 36 -35z m190 -190 c41 -41
75 -77 75 -80 0 -3 -274 -5 -610 -5 -335 0 -610 2 -610 5 0 9 144 147 158 151
7 2 215 4 462 4 l449 0 76 -75z"/>
</g>
</svg>
